<svg xmlns="http://www.w3.org/2000/svg" width="1789" height="1729" viewBox="0 0 1789 1729">
  <defs>
    <style>
      .cls-1 {
        fill: #fff;
      }

      .cls-1, .cls-2 {
        fill-rule: evenodd;
      }

      .cls-2 {
        fill: #7a0ffe;
      }
    </style>
  </defs>
  <path class="cls-1" d="M1586,1014l171-206s-166.67-182.093-515-146L164,1618s-13.366,13.42,8,4l609-460s-13.514,293.61,191,446,421.7,134.27,594,87c0,0,131.69-47.45,221-123l2-465-473-1-1,210h202v122s-147.08,101.97-322-4c0,0-139.68-92.81-118-260s113-217.749,168-243,151.22-23.694,217,4S1536.27,969.887,1586,1014Z"/>
  <path class="cls-2" d="M807,355L972,151S785.917-46.371,445,10,26.749,371.587,22,379c0,0-54.636,202.257,10,347S139.363,908.191,251,991s378.37,115.17,523,19c0,0,36.812-28.306,62-52l919-816s2.54-6.383-7-2L1010,711V449l-475-2-1,214,200-1,1,122s-61.636,40.775-127,40-131.555,3.488-213-59c0,0-62.376-42.442-87-143,0,0-24.5-77.25,7-193,0,0,15.312-61.044,87-117,0,0,52.953-50.044,139-53,0,0,87.548-5.118,158,27C699,284,765.617,314.226,807,355Z"/>
</svg>
